# xmcd
#
# Track frame offsets:
# 150
# 14234
# 24035
# 39610
# 63634
# 82304
# 98178
# 117948
# 133551
# 151695
# 165276
# 182909
# 199663
# 213632
#
# Disc length: 3125 seconds
#
# Revision: 0
# Processed by: cddbd v1.4PL0 Copyright (c) Steve Scherf et al.
# Submitted via: Audion 3.0.2 (http://www.panic.com/audion/)
#
DISCID=bd0c330e
DTITLE=jhj - holy City Zoo
DYEAR=1900
DGENRE=
TTITLE0=jjj
TTITLE1=j
TTITLE2=j
TTITLE3=j
TTITLE4=j
TTITLE5=j
TTITLE6=j
TTITLE7=j
TTITLE8=j
TTITLE9=j
TTITLE10=j
TTITLE11=j
TTITLE12=j
TTITLE13=j
EXTD=
EXTT0=
EXTT1=
EXTT2=
EXTT3=
EXTT4=
EXTT5=
EXTT6=
EXTT7=
EXTT8=
EXTT9=
EXTT10=
EXTT11=
EXTT12=
EXTT13=
PLAYORDER=
